<svg id="Component_47_1" data-name="Component 47 – 1" xmlns="http://www.w3.org/2000/svg" width="2009.421" height="1000.958" viewBox="0 0 2009.421 1000.958">
  <g id="Group_11565" data-name="Group 11565" transform="translate(0 0.005)" opacity="0.195">
    <path id="Path_11960" data-name="Path 11960" d="M143.485,0,83.661,63.381,23.836,0H17.153l64.16,67.98v76.346L0,58.16v90.488l17.152,18.173h6.64L2.342,144.094V67.7l81.313,86.161L164.968,67.7v76.391l-21.45,22.727h6.64L167.452,148.5V58.3l-.131-.139L86.008,144.321V67.964L150.158,0Z" transform="translate(0)" fill="#002829"/>
    <path id="Path_11961" data-name="Path 11961" d="M143.485,762.464,83.661,825.85,23.836,762.464H17.153l64.16,67.98V906.79L0,820.629v90.489L17.153,929.29h6.64L2.342,906.563V830.172l81.313,86.161,81.313-86.161v76.391l-21.45,22.727h6.64l17.294-18.324v-90.2l-.131-.139L86.008,906.79V830.433l64.15-67.969Z" transform="translate(0 -595.643)" fill="#002829"/>
    <path id="Path_11962" data-name="Path 11962" d="M908.813,0,848.989,63.381,789.164,0h-6.683l64.16,67.98v76.346L765.329,58.16v90.488l17.152,18.173h6.64l-21.45-22.727V67.7l81.313,86.161L930.3,67.7v76.391l-21.45,22.727h6.64L932.78,148.5V58.3l-.131-.139-81.313,86.161V67.964L915.486,0Z" transform="translate(-597.876)" fill="#002829"/>
    <path id="Path_11963" data-name="Path 11963" d="M851.336,906.79V830.433l64.149-67.969h-6.672L848.989,825.85l-59.825-63.386h-6.683l64.16,67.98V906.79l-81.313-86.161v90.488l17.152,18.174h6.64l-21.45-22.727V830.172l81.313,86.161L930.3,830.172v76.391l-21.45,22.727h6.64l17.294-18.324v-90.2l-.131-.139Z" transform="translate(-597.876 -595.643)" fill="#002829"/>
    <path id="Path_11964" data-name="Path 11964" d="M1674.141,0l-59.824,63.386L1554.492,0h-6.683l64.16,67.98v76.346L1530.656,58.16v90.488l17.152,18.173h6.64L1533,144.094V67.7l81.313,86.161L1695.624,67.7v76.391l-21.45,22.727h6.64l17.294-18.324V58.3l-.131-.139-81.313,86.161V67.964L1680.814,0Z" transform="translate(-1195.753)" fill="#002829"/>
    <path id="Path_11965" data-name="Path 11965" d="M1616.664,906.79V830.433l64.149-67.969h-6.672l-59.825,63.386-59.825-63.386h-6.683l64.16,67.98V906.79l-81.313-86.161v90.488l17.152,18.174h6.64L1533,906.563V830.172l81.313,86.161,81.313-86.161v76.391l-21.45,22.727h6.64l17.294-18.324v-90.2l-.131-.139Z" transform="translate(-1195.752 -595.643)" fill="#002829"/>
    <path id="Path_11966" data-name="Path 11966" d="M2439.47,0l-59.825,63.386L2319.82,0h-6.683l64.16,67.98v76.346L2295.985,58.16v90.488l17.153,18.173h6.64l-21.45-22.727V67.7l81.313,86.161L2460.952,67.7v76.391l-21.45,22.727h6.64l17.294-18.324V58.3l-.131-.139-81.313,86.161V67.964L2446.142,0Z" transform="translate(-1793.629)" fill="#002829"/>
    <path id="Path_11967" data-name="Path 11967" d="M2381.992,906.79V830.433l64.149-67.969h-6.672l-59.825,63.386-59.825-63.386h-6.683l64.16,67.98V906.79l-81.313-86.161v90.488l17.152,18.174h6.64l-21.45-22.727V830.172l81.313,86.161,81.313-86.161v76.391l-21.45,22.727h6.64l17.294-18.324v-90.2l-.131-.139Z" transform="translate(-1793.629 -595.643)" fill="#002829"/>
    <path id="Path_11968" data-name="Path 11968" d="M143.485,1524.933l-59.825,63.386-59.825-63.386H17.153l64.16,67.98v76.346L0,1583.1v90.488l17.152,18.174h6.64l-21.45-22.727v-76.392L83.655,1678.8l81.313-86.161v76.392l-21.45,22.727h6.64l17.294-18.324v-90.2l-.131-.139-81.313,86.161V1592.9l64.15-67.969Z" transform="translate(0 -1191.286)" fill="#002829"/>
    <path id="Path_11969" data-name="Path 11969" d="M143.485,2287.4,83.661,2350.79,23.836,2287.4H17.153l64.16,67.98v76.345L0,2345.568v90.489l17.152,18.174h6.64L2.342,2431.5v-76.392l81.313,86.162,81.313-86.162V2431.5l-21.45,22.727h6.64l17.294-18.324v-90.2l-.131-.139-81.313,86.161v-76.357l64.15-67.968Z" transform="translate(0 -1786.93)" fill="#002829"/>
    <path id="Path_11970" data-name="Path 11970" d="M851.336,1669.26V1592.9l64.149-67.968h-6.672l-59.825,63.386-59.825-63.386h-6.683l64.16,67.98v76.346L765.328,1583.1v90.488l17.152,18.173h6.64l-21.45-22.727v-76.391l81.313,86.161,81.313-86.161v76.391l-21.45,22.727h6.64l17.294-18.324v-90.2l-.131-.139Z" transform="translate(-597.876 -1191.286)" fill="#002829"/>
    <path id="Path_11971" data-name="Path 11971" d="M851.336,2431.729v-76.357l64.149-67.968h-6.672l-59.825,63.386L789.164,2287.4h-6.683l64.16,67.98v76.346l-81.313-86.161v90.489l17.152,18.174h6.64L767.67,2431.5v-76.392l81.313,86.161,81.313-86.161V2431.5l-21.45,22.727h6.64l17.294-18.324v-90.2l-.131-.139Z" transform="translate(-597.876 -1786.93)" fill="#002829"/>
    <path id="Path_11972" data-name="Path 11972" d="M1616.664,1669.26V1592.9l64.149-67.968h-6.672l-59.825,63.386-59.825-63.386h-6.683l64.16,67.98v76.346l-81.313-86.161v90.488l17.152,18.173h6.64L1533,1669.033v-76.391l81.313,86.161,81.313-86.161v76.391l-21.45,22.727h6.64l17.294-18.324v-90.2l-.131-.139Z" transform="translate(-1195.752 -1191.286)" fill="#002829"/>
    <path id="Path_11973" data-name="Path 11973" d="M1616.664,2431.729v-76.357l64.149-67.968h-6.672l-59.825,63.386-59.825-63.386h-6.683l64.16,67.98v76.346l-81.313-86.161v90.489l17.152,18.174h6.64L1533,2431.5v-76.392l81.313,86.161,81.313-86.161V2431.5l-21.45,22.727h6.64l17.294-18.324v-90.2l-.131-.139Z" transform="translate(-1195.752 -1786.93)" fill="#002829"/>
    <path id="Path_11974" data-name="Path 11974" d="M2381.992,1669.26V1592.9l64.149-67.968h-6.672l-59.825,63.386-59.825-63.386h-6.683l64.16,67.98v76.346l-81.313-86.161v90.488l17.152,18.173h6.64l-21.45-22.727v-76.391l81.313,86.161,81.313-86.161v76.391l-21.45,22.727h6.64l17.294-18.324v-90.2l-.131-.139Z" transform="translate(-1793.629 -1191.286)" fill="#002829"/>
    <path id="Path_11975" data-name="Path 11975" d="M2381.992,2431.729v-76.357l64.149-67.968h-6.672l-59.825,63.386L2319.82,2287.4h-6.683l64.16,67.98v76.346l-81.313-86.161v90.489l17.152,18.174h6.64l-21.45-22.727v-76.392l81.313,86.161,81.313-86.161V2431.5l-21.45,22.727h6.64l17.294-18.324v-90.2l-.131-.139Z" transform="translate(-1793.629 -1786.93)" fill="#002829"/>
    <path id="Path_11976" data-name="Path 11976" d="M3204.8,0l-59.825,63.386L3085.148,0h-6.683l64.16,67.98v76.346L3061.312,58.16v90.488l17.153,18.173h6.64l-21.45-22.727V67.7l81.313,86.161L3226.28,67.7v76.391l-21.45,22.727h6.64l17.294-18.324V58.3l-.131-.139-81.313,86.161V67.964L3211.47,0Z" transform="translate(-2391.505)" fill="#002829"/>
    <path id="Path_11977" data-name="Path 11977" d="M3147.321,906.79V830.433l64.149-67.969H3204.8l-59.825,63.386-59.825-63.386h-6.683l64.16,67.98V906.79l-81.313-86.161v90.488l17.152,18.174h6.64l-21.45-22.727V830.172l81.313,86.161,81.313-86.161v76.391l-21.45,22.727h6.64l17.294-18.324v-90.2l-.131-.139Z" transform="translate(-2391.505 -595.643)" fill="#002829"/>
    <path id="Path_11978" data-name="Path 11978" d="M3147.321,1669.26V1592.9l64.149-67.968H3204.8l-59.825,63.386-59.825-63.386h-6.683l64.16,67.98v76.346l-81.313-86.161v90.488l17.152,18.173h6.64l-21.45-22.727v-76.391l81.313,86.161,81.313-86.161v76.391l-21.45,22.727h6.64l17.294-18.324v-90.2l-.131-.139Z" transform="translate(-2391.505 -1191.286)" fill="#002829"/>
    <path id="Path_11979" data-name="Path 11979" d="M3147.321,2431.729v-76.357l64.149-67.968H3204.8l-59.825,63.386-59.825-63.386h-6.683l64.16,67.98v76.346l-81.313-86.161v90.489l17.152,18.174h6.64l-21.45-22.727v-76.392l81.313,86.161,81.313-86.161V2431.5l-21.45,22.727h6.64l17.294-18.324v-90.2l-.131-.139Z" transform="translate(-2391.505 -1786.93)" fill="#002829"/>
    <path id="Path_11980" data-name="Path 11980" d="M143.485,3049.872l-59.825,63.386-59.825-63.386H17.153l64.16,67.98V3194.2L0,3108.036v90.489L17.153,3216.7h6.64l-21.45-22.727V3117.58l81.313,86.161,81.313-86.161v76.392l-21.45,22.727h6.64l17.294-18.324v-90.2l-.131-.139L86.008,3194.2V3117.84l64.15-67.968Z" transform="translate(0 -2382.572)" fill="#002829"/>
    <path id="Path_11981" data-name="Path 11981" d="M143.485,3812.342l-59.825,63.386-59.825-63.386H17.153l64.16,67.98v76.346L0,3870.506v90.489l17.152,18.173h6.64l-21.45-22.727v-76.392l81.313,86.162,81.313-86.162v76.392l-21.45,22.727h6.64l17.294-18.324v-90.2l-.131-.139-81.313,86.162V3880.31l64.15-67.968Z" transform="translate(0 -2978.215)" fill="#002829"/>
    <path id="Path_11982" data-name="Path 11982" d="M851.336,3194.2V3117.84l64.149-67.969h-6.672l-59.825,63.386-59.825-63.386h-6.683l64.16,67.98V3194.2l-81.313-86.161v90.488l17.152,18.174h6.64l-21.45-22.727v-76.391l81.313,86.161,81.313-86.161v76.391l-21.45,22.727h6.64l17.294-18.324v-90.2l-.131-.139Z" transform="translate(-597.876 -2382.571)" fill="#002829"/>
    <path id="Path_11983" data-name="Path 11983" d="M908.813,3812.342l-59.825,63.386-59.825-63.386h-6.683l64.16,67.98v76.346l-81.313-86.162v90.489l17.152,18.173h6.64l-21.45-22.727v-76.392l81.313,86.162,81.313-86.162v76.392l-21.45,22.727h6.64l17.294-18.324v-90.2l-.131-.139-81.313,86.162V3880.31l64.15-67.968Z" transform="translate(-597.876 -2978.215)" fill="#002829"/>
    <path id="Path_11984" data-name="Path 11984" d="M1616.664,3194.2V3117.84l64.149-67.969h-6.672l-59.825,63.386-59.825-63.386h-6.683l64.16,67.98V3194.2l-81.313-86.161v90.488l17.152,18.174h6.64L1533,3193.97v-76.391l81.313,86.161,81.313-86.161v76.391l-21.45,22.727h6.64l17.294-18.324v-90.2l-.131-.139Z" transform="translate(-1195.752 -2382.571)" fill="#002829"/>
    <path id="Path_11985" data-name="Path 11985" d="M1674.141,3812.342l-59.824,63.386-59.825-63.386h-6.683l64.16,67.98v76.346l-81.313-86.162v90.489l17.152,18.173h6.64L1533,3956.441v-76.392l81.313,86.162,81.313-86.162v76.392l-21.45,22.727h6.64l17.294-18.324v-90.2l-.131-.139-81.313,86.162V3880.31l64.15-67.968Z" transform="translate(-1195.753 -2978.215)" fill="#002829"/>
    <path id="Path_11986" data-name="Path 11986" d="M2381.992,3194.2V3117.84l64.149-67.969h-6.672l-59.825,63.386-59.825-63.386h-6.683l64.16,67.98V3194.2l-81.313-86.161v90.488l17.152,18.174h6.64l-21.45-22.727v-76.391l81.313,86.161,81.313-86.161v76.391L2439.5,3216.7h6.64l17.294-18.324v-90.2l-.131-.139Z" transform="translate(-1793.629 -2382.571)" fill="#002829"/>
    <path id="Path_11987" data-name="Path 11987" d="M2439.47,3812.342l-59.825,63.386-59.825-63.386h-6.683l64.16,67.98v76.346l-81.313-86.162v90.489l17.153,18.173h6.64l-21.45-22.727v-76.392l81.313,86.162,81.313-86.162v76.392l-21.45,22.727h6.64l17.294-18.324v-90.2l-.131-.139-81.313,86.162V3880.31l64.15-67.968Z" transform="translate(-1793.629 -2978.215)" fill="#002829"/>
    <path id="Path_11988" data-name="Path 11988" d="M3147.321,3194.2V3117.84l64.149-67.969H3204.8l-59.825,63.386-59.825-63.386h-6.683l64.16,67.98V3194.2l-81.313-86.161v90.488l17.152,18.174h6.64l-21.45-22.727v-76.391l81.313,86.161,81.313-86.161v76.391l-21.45,22.727h6.64l17.294-18.324v-90.2l-.131-.139Z" transform="translate(-2391.505 -2382.571)" fill="#002829"/>
    <path id="Path_11989" data-name="Path 11989" d="M3204.8,3812.342l-59.825,63.386-59.825-63.386h-6.683l64.16,67.98v76.346l-81.313-86.162v90.489l17.153,18.173h6.64l-21.45-22.727v-76.392l81.313,86.162,81.313-86.162v76.392l-21.45,22.727h6.64l17.294-18.324v-90.2l-.131-.139-81.313,86.162V3880.31l64.15-67.968Z" transform="translate(-2391.505 -2978.215)" fill="#002829"/>
    <path id="Path_11990" data-name="Path 11990" d="M3970.126,0,3910.3,63.381,3850.476,0h-6.683l64.16,67.98v76.346L3826.64,58.16v90.488l17.152,18.173h6.64l-21.451-22.727V67.7l81.313,86.161L3991.608,67.7v76.391l-21.45,22.727h6.64l17.294-18.324V58.3l-.131-.139-81.313,86.161V67.964L3976.8,0Z" transform="translate(-2989.381)" fill="#002829"/>
    <path id="Path_11991" data-name="Path 11991" d="M3970.126,762.464,3910.3,825.85l-59.825-63.386h-6.683l64.16,67.98V906.79l-81.313-86.161v90.489l17.152,18.173h6.64l-21.451-22.727V830.172l81.313,86.161,81.313-86.161v76.391l-21.45,22.727h6.64l17.294-18.324v-90.2l-.131-.139-81.313,86.161V830.433l64.149-67.969Z" transform="translate(-2989.381 -595.643)" fill="#002829"/>
    <path id="Path_11992" data-name="Path 11992" d="M3970.126,1524.933l-59.825,63.386-59.825-63.386h-6.683l64.16,67.98v76.346L3826.64,1583.1v90.488l17.152,18.174h6.64l-21.451-22.727v-76.392L3910.3,1678.8l81.313-86.161v76.392l-21.45,22.727h6.64l17.294-18.324v-90.2l-.131-.139-81.313,86.161V1592.9l64.149-67.969Z" transform="translate(-2989.381 -1191.286)" fill="#002829"/>
    <path id="Path_11993" data-name="Path 11993" d="M3970.126,2287.4,3910.3,2350.79l-59.825-63.386h-6.683l64.16,67.98v76.345l-81.313-86.161v90.489l17.152,18.174h6.64l-21.451-22.727v-76.392l81.313,86.162,81.313-86.162V2431.5l-21.45,22.727h6.64l17.294-18.324v-90.2l-.131-.139-81.313,86.161v-76.357L3976.8,2287.4Z" transform="translate(-2989.381 -1786.93)" fill="#002829"/>
    <path id="Path_11994" data-name="Path 11994" d="M3970.126,3049.872l-59.825,63.386-59.825-63.386h-6.683l64.16,67.98V3194.2l-81.313-86.162v90.489l17.152,18.173h6.64l-21.451-22.727V3117.58l81.313,86.161,81.313-86.161v76.392l-21.45,22.727h6.64l17.294-18.324v-90.2l-.131-.139-81.313,86.162V3117.84l64.149-67.968Z" transform="translate(-2989.381 -2382.572)" fill="#002829"/>
    <path id="Path_11995" data-name="Path 11995" d="M3970.126,3812.342l-59.825,63.386-59.825-63.386h-6.683l64.16,67.98v76.346l-81.313-86.162v90.489l17.152,18.173h6.64l-21.451-22.727v-76.392l81.313,86.162,81.313-86.162v76.392l-21.45,22.727h6.64l17.294-18.324v-90.2l-.131-.139-81.313,86.162V3880.31l64.149-67.968Z" transform="translate(-2989.381 -2978.215)" fill="#002829"/>
  </g>
  <g id="Group_11566" data-name="Group 11566" transform="translate(1004.71 0.005)" opacity="0.195">
    <path id="Path_11960-2" data-name="Path 11960" d="M143.485,0,83.661,63.381,23.836,0H17.153l64.16,67.98v76.346L0,58.16v90.488l17.152,18.173h6.64L2.342,144.094V67.7l81.313,86.161L164.968,67.7v76.391l-21.45,22.727h6.64L167.452,148.5V58.3l-.131-.139L86.008,144.321V67.964L150.158,0Z" transform="translate(0)" fill="#002829"/>
    <path id="Path_11961-2" data-name="Path 11961" d="M143.485,762.464,83.661,825.85,23.836,762.464H17.153l64.16,67.98V906.79L0,820.629v90.489L17.153,929.29h6.64L2.342,906.563V830.172l81.313,86.161,81.313-86.161v76.391l-21.45,22.727h6.64l17.294-18.324v-90.2l-.131-.139L86.008,906.79V830.433l64.15-67.969Z" transform="translate(0 -595.643)" fill="#002829"/>
    <path id="Path_11962-2" data-name="Path 11962" d="M908.813,0,848.989,63.381,789.164,0h-6.683l64.16,67.98v76.346L765.329,58.16v90.488l17.152,18.173h6.64l-21.45-22.727V67.7l81.313,86.161L930.3,67.7v76.391l-21.45,22.727h6.64L932.78,148.5V58.3l-.131-.139-81.313,86.161V67.964L915.486,0Z" transform="translate(-597.876)" fill="#002829"/>
    <path id="Path_11963-2" data-name="Path 11963" d="M851.336,906.79V830.433l64.149-67.969h-6.672L848.989,825.85l-59.825-63.386h-6.683l64.16,67.98V906.79l-81.313-86.161v90.488l17.152,18.174h6.64l-21.45-22.727V830.172l81.313,86.161L930.3,830.172v76.391l-21.45,22.727h6.64l17.294-18.324v-90.2l-.131-.139Z" transform="translate(-597.876 -595.643)" fill="#002829"/>
    <path id="Path_11964-2" data-name="Path 11964" d="M1674.141,0l-59.824,63.386L1554.492,0h-6.683l64.16,67.98v76.346L1530.656,58.16v90.488l17.152,18.173h6.64L1533,144.094V67.7l81.313,86.161L1695.624,67.7v76.391l-21.45,22.727h6.64l17.294-18.324V58.3l-.131-.139-81.313,86.161V67.964L1680.814,0Z" transform="translate(-1195.753)" fill="#002829"/>
    <path id="Path_11965-2" data-name="Path 11965" d="M1616.664,906.79V830.433l64.149-67.969h-6.672l-59.825,63.386-59.825-63.386h-6.683l64.16,67.98V906.79l-81.313-86.161v90.488l17.152,18.174h6.64L1533,906.563V830.172l81.313,86.161,81.313-86.161v76.391l-21.45,22.727h6.64l17.294-18.324v-90.2l-.131-.139Z" transform="translate(-1195.752 -595.643)" fill="#002829"/>
    <path id="Path_11966-2" data-name="Path 11966" d="M2439.47,0l-59.825,63.386L2319.82,0h-6.683l64.16,67.98v76.346L2295.985,58.16v90.488l17.153,18.173h6.64l-21.45-22.727V67.7l81.313,86.161L2460.952,67.7v76.391l-21.45,22.727h6.64l17.294-18.324V58.3l-.131-.139-81.313,86.161V67.964L2446.142,0Z" transform="translate(-1793.629)" fill="#002829"/>
    <path id="Path_11967-2" data-name="Path 11967" d="M2381.992,906.79V830.433l64.149-67.969h-6.672l-59.825,63.386-59.825-63.386h-6.683l64.16,67.98V906.79l-81.313-86.161v90.488l17.152,18.174h6.64l-21.45-22.727V830.172l81.313,86.161,81.313-86.161v76.391l-21.45,22.727h6.64l17.294-18.324v-90.2l-.131-.139Z" transform="translate(-1793.629 -595.643)" fill="#002829"/>
    <path id="Path_11968-2" data-name="Path 11968" d="M143.485,1524.933l-59.825,63.386-59.825-63.386H17.153l64.16,67.98v76.346L0,1583.1v90.488l17.152,18.174h6.64l-21.45-22.727v-76.392L83.655,1678.8l81.313-86.161v76.392l-21.45,22.727h6.64l17.294-18.324v-90.2l-.131-.139-81.313,86.161V1592.9l64.15-67.969Z" transform="translate(0 -1191.286)" fill="#002829"/>
    <path id="Path_11969-2" data-name="Path 11969" d="M143.485,2287.4,83.661,2350.79,23.836,2287.4H17.153l64.16,67.98v76.345L0,2345.568v90.489l17.152,18.174h6.64L2.342,2431.5v-76.392l81.313,86.162,81.313-86.162V2431.5l-21.45,22.727h6.64l17.294-18.324v-90.2l-.131-.139-81.313,86.161v-76.357l64.15-67.968Z" transform="translate(0 -1786.93)" fill="#002829"/>
    <path id="Path_11970-2" data-name="Path 11970" d="M851.336,1669.26V1592.9l64.149-67.968h-6.672l-59.825,63.386-59.825-63.386h-6.683l64.16,67.98v76.346L765.328,1583.1v90.488l17.152,18.173h6.64l-21.45-22.727v-76.391l81.313,86.161,81.313-86.161v76.391l-21.45,22.727h6.64l17.294-18.324v-90.2l-.131-.139Z" transform="translate(-597.876 -1191.286)" fill="#002829"/>
    <path id="Path_11971-2" data-name="Path 11971" d="M851.336,2431.729v-76.357l64.149-67.968h-6.672l-59.825,63.386L789.164,2287.4h-6.683l64.16,67.98v76.346l-81.313-86.161v90.489l17.152,18.174h6.64L767.67,2431.5v-76.392l81.313,86.161,81.313-86.161V2431.5l-21.45,22.727h6.64l17.294-18.324v-90.2l-.131-.139Z" transform="translate(-597.876 -1786.93)" fill="#002829"/>
    <path id="Path_11972-2" data-name="Path 11972" d="M1616.664,1669.26V1592.9l64.149-67.968h-6.672l-59.825,63.386-59.825-63.386h-6.683l64.16,67.98v76.346l-81.313-86.161v90.488l17.152,18.173h6.64L1533,1669.033v-76.391l81.313,86.161,81.313-86.161v76.391l-21.45,22.727h6.64l17.294-18.324v-90.2l-.131-.139Z" transform="translate(-1195.752 -1191.286)" fill="#002829"/>
    <path id="Path_11973-2" data-name="Path 11973" d="M1616.664,2431.729v-76.357l64.149-67.968h-6.672l-59.825,63.386-59.825-63.386h-6.683l64.16,67.98v76.346l-81.313-86.161v90.489l17.152,18.174h6.64L1533,2431.5v-76.392l81.313,86.161,81.313-86.161V2431.5l-21.45,22.727h6.64l17.294-18.324v-90.2l-.131-.139Z" transform="translate(-1195.752 -1786.93)" fill="#002829"/>
    <path id="Path_11974-2" data-name="Path 11974" d="M2381.992,1669.26V1592.9l64.149-67.968h-6.672l-59.825,63.386-59.825-63.386h-6.683l64.16,67.98v76.346l-81.313-86.161v90.488l17.152,18.173h6.64l-21.45-22.727v-76.391l81.313,86.161,81.313-86.161v76.391l-21.45,22.727h6.64l17.294-18.324v-90.2l-.131-.139Z" transform="translate(-1793.629 -1191.286)" fill="#002829"/>
    <path id="Path_11975-2" data-name="Path 11975" d="M2381.992,2431.729v-76.357l64.149-67.968h-6.672l-59.825,63.386L2319.82,2287.4h-6.683l64.16,67.98v76.346l-81.313-86.161v90.489l17.152,18.174h6.64l-21.45-22.727v-76.392l81.313,86.161,81.313-86.161V2431.5l-21.45,22.727h6.64l17.294-18.324v-90.2l-.131-.139Z" transform="translate(-1793.629 -1786.93)" fill="#002829"/>
    <path id="Path_11976-2" data-name="Path 11976" d="M3204.8,0l-59.825,63.386L3085.148,0h-6.683l64.16,67.98v76.346L3061.312,58.16v90.488l17.153,18.173h6.64l-21.45-22.727V67.7l81.313,86.161L3226.28,67.7v76.391l-21.45,22.727h6.64l17.294-18.324V58.3l-.131-.139-81.313,86.161V67.964L3211.47,0Z" transform="translate(-2391.505)" fill="#002829"/>
    <path id="Path_11977-2" data-name="Path 11977" d="M3147.321,906.79V830.433l64.149-67.969H3204.8l-59.825,63.386-59.825-63.386h-6.683l64.16,67.98V906.79l-81.313-86.161v90.488l17.152,18.174h6.64l-21.45-22.727V830.172l81.313,86.161,81.313-86.161v76.391l-21.45,22.727h6.64l17.294-18.324v-90.2l-.131-.139Z" transform="translate(-2391.505 -595.643)" fill="#002829"/>
    <path id="Path_11978-2" data-name="Path 11978" d="M3147.321,1669.26V1592.9l64.149-67.968H3204.8l-59.825,63.386-59.825-63.386h-6.683l64.16,67.98v76.346l-81.313-86.161v90.488l17.152,18.173h6.64l-21.45-22.727v-76.391l81.313,86.161,81.313-86.161v76.391l-21.45,22.727h6.64l17.294-18.324v-90.2l-.131-.139Z" transform="translate(-2391.505 -1191.286)" fill="#002829"/>
    <path id="Path_11979-2" data-name="Path 11979" d="M3147.321,2431.729v-76.357l64.149-67.968H3204.8l-59.825,63.386-59.825-63.386h-6.683l64.16,67.98v76.346l-81.313-86.161v90.489l17.152,18.174h6.64l-21.45-22.727v-76.392l81.313,86.161,81.313-86.161V2431.5l-21.45,22.727h6.64l17.294-18.324v-90.2l-.131-.139Z" transform="translate(-2391.505 -1786.93)" fill="#002829"/>
    <path id="Path_11980-2" data-name="Path 11980" d="M143.485,3049.872l-59.825,63.386-59.825-63.386H17.153l64.16,67.98V3194.2L0,3108.036v90.489L17.153,3216.7h6.64l-21.45-22.727V3117.58l81.313,86.161,81.313-86.161v76.392l-21.45,22.727h6.64l17.294-18.324v-90.2l-.131-.139L86.008,3194.2V3117.84l64.15-67.968Z" transform="translate(0 -2382.572)" fill="#002829"/>
    <path id="Path_11981-2" data-name="Path 11981" d="M143.485,3812.342l-59.825,63.386-59.825-63.386H17.153l64.16,67.98v76.346L0,3870.506v90.489l17.152,18.173h6.64l-21.45-22.727v-76.392l81.313,86.162,81.313-86.162v76.392l-21.45,22.727h6.64l17.294-18.324v-90.2l-.131-.139-81.313,86.162V3880.31l64.15-67.968Z" transform="translate(0 -2978.215)" fill="#002829"/>
    <path id="Path_11982-2" data-name="Path 11982" d="M851.336,3194.2V3117.84l64.149-67.969h-6.672l-59.825,63.386-59.825-63.386h-6.683l64.16,67.98V3194.2l-81.313-86.161v90.488l17.152,18.174h6.64l-21.45-22.727v-76.391l81.313,86.161,81.313-86.161v76.391l-21.45,22.727h6.64l17.294-18.324v-90.2l-.131-.139Z" transform="translate(-597.876 -2382.571)" fill="#002829"/>
    <path id="Path_11983-2" data-name="Path 11983" d="M908.813,3812.342l-59.825,63.386-59.825-63.386h-6.683l64.16,67.98v76.346l-81.313-86.162v90.489l17.152,18.173h6.64l-21.45-22.727v-76.392l81.313,86.162,81.313-86.162v76.392l-21.45,22.727h6.64l17.294-18.324v-90.2l-.131-.139-81.313,86.162V3880.31l64.15-67.968Z" transform="translate(-597.876 -2978.215)" fill="#002829"/>
    <path id="Path_11984-2" data-name="Path 11984" d="M1616.664,3194.2V3117.84l64.149-67.969h-6.672l-59.825,63.386-59.825-63.386h-6.683l64.16,67.98V3194.2l-81.313-86.161v90.488l17.152,18.174h6.64L1533,3193.97v-76.391l81.313,86.161,81.313-86.161v76.391l-21.45,22.727h6.64l17.294-18.324v-90.2l-.131-.139Z" transform="translate(-1195.752 -2382.571)" fill="#002829"/>
    <path id="Path_11985-2" data-name="Path 11985" d="M1674.141,3812.342l-59.824,63.386-59.825-63.386h-6.683l64.16,67.98v76.346l-81.313-86.162v90.489l17.152,18.173h6.64L1533,3956.441v-76.392l81.313,86.162,81.313-86.162v76.392l-21.45,22.727h6.64l17.294-18.324v-90.2l-.131-.139-81.313,86.162V3880.31l64.15-67.968Z" transform="translate(-1195.753 -2978.215)" fill="#002829"/>
    <path id="Path_11986-2" data-name="Path 11986" d="M2381.992,3194.2V3117.84l64.149-67.969h-6.672l-59.825,63.386-59.825-63.386h-6.683l64.16,67.98V3194.2l-81.313-86.161v90.488l17.152,18.174h6.64l-21.45-22.727v-76.391l81.313,86.161,81.313-86.161v76.391L2439.5,3216.7h6.64l17.294-18.324v-90.2l-.131-.139Z" transform="translate(-1793.629 -2382.571)" fill="#002829"/>
    <path id="Path_11987-2" data-name="Path 11987" d="M2439.47,3812.342l-59.825,63.386-59.825-63.386h-6.683l64.16,67.98v76.346l-81.313-86.162v90.489l17.153,18.173h6.64l-21.45-22.727v-76.392l81.313,86.162,81.313-86.162v76.392l-21.45,22.727h6.64l17.294-18.324v-90.2l-.131-.139-81.313,86.162V3880.31l64.15-67.968Z" transform="translate(-1793.629 -2978.215)" fill="#002829"/>
    <path id="Path_11988-2" data-name="Path 11988" d="M3147.321,3194.2V3117.84l64.149-67.969H3204.8l-59.825,63.386-59.825-63.386h-6.683l64.16,67.98V3194.2l-81.313-86.161v90.488l17.152,18.174h6.64l-21.45-22.727v-76.391l81.313,86.161,81.313-86.161v76.391l-21.45,22.727h6.64l17.294-18.324v-90.2l-.131-.139Z" transform="translate(-2391.505 -2382.571)" fill="#002829"/>
    <path id="Path_11989-2" data-name="Path 11989" d="M3204.8,3812.342l-59.825,63.386-59.825-63.386h-6.683l64.16,67.98v76.346l-81.313-86.162v90.489l17.153,18.173h6.64l-21.45-22.727v-76.392l81.313,86.162,81.313-86.162v76.392l-21.45,22.727h6.64l17.294-18.324v-90.2l-.131-.139-81.313,86.162V3880.31l64.15-67.968Z" transform="translate(-2391.505 -2978.215)" fill="#002829"/>
    <path id="Path_11990-2" data-name="Path 11990" d="M3970.126,0,3910.3,63.381,3850.476,0h-6.683l64.16,67.98v76.346L3826.64,58.16v90.488l17.152,18.173h6.64l-21.451-22.727V67.7l81.313,86.161L3991.608,67.7v76.391l-21.45,22.727h6.64l17.294-18.324V58.3l-.131-.139-81.313,86.161V67.964L3976.8,0Z" transform="translate(-2989.381)" fill="#002829"/>
    <path id="Path_11991-2" data-name="Path 11991" d="M3970.126,762.464,3910.3,825.85l-59.825-63.386h-6.683l64.16,67.98V906.79l-81.313-86.161v90.489l17.152,18.173h6.64l-21.451-22.727V830.172l81.313,86.161,81.313-86.161v76.391l-21.45,22.727h6.64l17.294-18.324v-90.2l-.131-.139-81.313,86.161V830.433l64.149-67.969Z" transform="translate(-2989.381 -595.643)" fill="#002829"/>
    <path id="Path_11992-2" data-name="Path 11992" d="M3970.126,1524.933l-59.825,63.386-59.825-63.386h-6.683l64.16,67.98v76.346L3826.64,1583.1v90.488l17.152,18.174h6.64l-21.451-22.727v-76.392L3910.3,1678.8l81.313-86.161v76.392l-21.45,22.727h6.64l17.294-18.324v-90.2l-.131-.139-81.313,86.161V1592.9l64.149-67.969Z" transform="translate(-2989.381 -1191.286)" fill="#002829"/>
    <path id="Path_11993-2" data-name="Path 11993" d="M3970.126,2287.4,3910.3,2350.79l-59.825-63.386h-6.683l64.16,67.98v76.345l-81.313-86.161v90.489l17.152,18.174h6.64l-21.451-22.727v-76.392l81.313,86.162,81.313-86.162V2431.5l-21.45,22.727h6.64l17.294-18.324v-90.2l-.131-.139-81.313,86.161v-76.357L3976.8,2287.4Z" transform="translate(-2989.381 -1786.93)" fill="#002829"/>
    <path id="Path_11994-2" data-name="Path 11994" d="M3970.126,3049.872l-59.825,63.386-59.825-63.386h-6.683l64.16,67.98V3194.2l-81.313-86.162v90.489l17.152,18.173h6.64l-21.451-22.727V3117.58l81.313,86.161,81.313-86.161v76.392l-21.45,22.727h6.64l17.294-18.324v-90.2l-.131-.139-81.313,86.162V3117.84l64.149-67.968Z" transform="translate(-2989.381 -2382.572)" fill="#002829"/>
    <path id="Path_11995-2" data-name="Path 11995" d="M3970.126,3812.342l-59.825,63.386-59.825-63.386h-6.683l64.16,67.98v76.346l-81.313-86.162v90.489l17.152,18.173h6.64l-21.451-22.727v-76.392l81.313,86.162,81.313-86.162v76.392l-21.45,22.727h6.64l17.294-18.324v-90.2l-.131-.139-81.313,86.162V3880.31l64.149-67.968Z" transform="translate(-2989.381 -2978.215)" fill="#002829"/>
  </g>
</svg>
